<?xml version="1.0" encoding="utf-8"?>
<!-- Generator: Adobe Illustrator 21.0.0, SVG Export Plug-In . SVG Version: 6.00 Build 0)  -->
<svg version="1.1" id="Layer_1" xmlns="http://www.w3.org/2000/svg" xmlns:xlink="http://www.w3.org/1999/xlink" x="0px" y="0px"
	 viewBox="0 0 600 600" style="enable-background:new 0 0 600 600;" xml:space="preserve">
<style type="text/css">
	.st0{filter:url(#Adobe_OpacityMaskFilter);}
	.st1{mask:url(#mask);}
	.st2{fill:none;stroke:#FFFFFF;stroke-width:4.95;stroke-miterlimit:10;}
</style>
<title>Exhibit graphics</title>
<g>
	<g id="Layer_2">
		<g id="Octopus.tif">
			
				<image style="overflow:visible;opacity:0.75;enable-background:new    ;" width="2530" height="2148" xlink:href="A5AF187B.png"  transform="matrix(0.2399 0 0 0.2399 -2.76 66.84)">
			</image>
			
				<image style="overflow:visible;enable-background:new    ;" width="739" height="500" id="Octopus" xlink:href="A5AF1879.png"  transform="matrix(0.4626 0.7011 -0.7011 0.4626 300.49 -15.24)">
			</image>
		</g>
		<defs>
			<filter id="Adobe_OpacityMaskFilter" filterUnits="userSpaceOnUse" x="121.1" y="21.3" width="438.3" height="517.7">
				<feFlood  style="flood-color:white;flood-opacity:1" result="back"/>
				<feBlend  in="SourceGraphic" in2="back" mode="normal"/>
			</filter>
		</defs>
		<mask maskUnits="userSpaceOnUse" x="121.1" y="21.3" width="438.3" height="517.7" id="mask">
			<g class="st0">
				<path d="M394,420.6c-5.3,13.2-11.3,26.1-18,38.7l4.6,1.9c2.1-7.6,8.8-12.5,13.1-18.8c1.9-2.6,3.1-5.7,3.6-8.9
					c0.3-2.1-0.7-7.5,3.4-6.3c2.7,0.8,3.2,5.5,3.7,7.7c0.7,3.8,2.6,7.2,5.4,9.9c1.5,1.5,4.2,3.3,4.5,5.5c0.5,3.9-2.5,7.4-4.8,10.1
					c-1.7,1.9-3.6,4.5-5.7,5.8c-4.4,2.8-8.2-1.7-4.9-5.6c1.3-1.5,3.7-2.6,5.3-3.9c2.2-1.8,4.2-3.7,6.1-5.8l-3.9-3
					c-3.5,4.7-7.5,9-11.8,12.9c-2.3,2.1,0.6,4.9,3,3.9c7.8-3.3,14.3-8.9,18.7-16.1c1.5-2.4-2-5.2-3.9-3l-15.5,17.4
					c-2.1,2.4,1.2,5.8,3.5,3.5l15.5-14.6l-3.5-3.5c-5.3,5.5-9.7,11.8-13.1,18.6c-1.4,2.9,2.7,5.3,4.3,2.5c3.6-6.1,6.8-12.3,9.6-18.8
					c1.3-2.9-3-5.5-4.3-2.5c-2.8,6.5-6,12.7-9.6,18.8l4.3,2.5c3.2-6.5,7.4-12.4,12.3-17.6c1-1,1-2.6,0-3.5s-2.6-1-3.5,0l-15.5,14.6
					l3.5,3.5l15.5-17.4l-3.9-3c-4,6.4-9.9,11.5-16.9,14.3l3,3.9c4.6-4.2,8.8-8.9,12.6-13.9c1.7-2.3-2-5.1-3.9-3
					c-3.3,3.5-7,6.6-11,9.4c-2.1,1.5-4.2,3-4.4,5.8c-0.4,4.8,6,10.7,10.6,10.4c3.2-0.2,6-3.7,8-5.7c2.7-2.6,5.1-5.5,7.2-8.6
					c3.8-6.3,2.3-11.6-2.8-16.5c-3.5-3.4-4.5-6.3-5.6-10.9c-0.8-3-1.9-5.6-4.4-7.6c-4.1-3.1-9.6-2.2-11.3,3
					c-1.1,3.4-0.2,6.8-1.8,10.1c-1.4,2.7-3.2,5.3-5.3,7.5c-4.1,4.8-8.4,9.4-10.1,15.6c-0.7,2.7,3.2,4.5,4.6,1.9
					c6.9-13,13.1-26.3,18.6-39.9C400.1,419,395.2,417.7,394,420.6L394,420.6z"/>
				<path d="M223.5,323.8c-1.6,0.5-1.2,0.9-1-0.6c0.1-1-0.1-2-0.8-2.7c-0.6-0.7-1.4-1.2-2.3-1.5c-0.4-0.1-2.6-0.3-2.7-0.4l-1.5,3.7
					l1,0.4l1.3-4.7h-0.4l2.2,1.2l0.1,0.4l-0.7,1.8l0.3-0.4l-1.8,0.7c2,0,4.4,4.8,5.3,6.2c1.5,2.3,3.8,5,4.7,7.5l0.3-1.9
					c1.9-2.7-1.6-3.8-2.9-5.5c-1.9-2.5-6.3,0-4.3,2.5c0.6,0.7,1.2,1.3,1.9,1.9c0.9,0.9,0.8,1.7,1.4,2.8c0.9,1.7,2.6,2.8,4.5,2.8
					c1.8,0,3.8-1.1,4-3c0.3-2.3-2.4-5-3.5-6.8c-2.3-3.6-5.5-10.7-10.1-11.6s-5.6,5.9-1,6.3c2.7,0.2,3.1-3.4,1.3-4.7
					c-1.4-1-3.2-1.3-4.9-0.9c-1.3,0.4-2.1,1.7-1.7,3.1c0.1,0.2,0.1,0.4,0.3,0.6c0.7,1.3,2,2.2,3.5,2.3l1,0.1c0.4-1,0.4-1,0-0.2
					c-0.2,0.6-0.3,1.3-0.2,2c0.6,4,4.9,4.3,8,3.4s1.8-5.7-1.3-4.8H223.5z"/>
				<path d="M154.7,297.9l4.8,4.5c0.3,0.3,1.6,1.9,1.9,2c0.8,0.1-0.2-1.3-0.3-1.9c-0.6-2.3-4.3-2.4-4.8,0c-0.5,2.3-0.1,4.7,1.1,6.8
					c1.4,2.3,5.5,0.8,4.6-1.9c-1.1-3.2-1.4-6.5-1-9.8l-4.3,1.8c0.6,0.4,1,1,1.1,1.6c0.8,3.1,5.6,1.8,4.8-1.3
					c-0.3-1.5-1.2-2.9-2.4-3.9c-1-1-2.6-0.9-3.6,0.1c-0.4,0.5-0.7,1-0.7,1.7c-0.4,3.8,0,7.6,1.2,11.1l4.6-1.9
					c-0.6-0.8-0.8-1.9-0.6-2.9h-4.8c0.5,2.2,1.9,4.5,4.2,5.1c2.1,0.6,4.3-0.2,5.5-2c1.3-2.1,0.4-4.5-1-6.2c-2.1-2.3-4.3-4.4-6.7-6.4
					C156,292.2,152.4,295.7,154.7,297.9L154.7,297.9z"/>
				<path d="M383.1,442c-1.1,0.7-2,1.6-2.6,2.7c-0.3,0.5-1.4,4-0.8,3.8l1.9,0.3l-0.4-0.3l1.1,1.5c-0.4-2.3,0.8-5.1,1.8-7l-4.6-1.9
					c-0.8,2.6-2.9,4.5-3.6,7.2c-0.6,2.6-0.6,5.3,0,7.9c0.6,2.6,4,2.1,4.8,0c1-2.7,1.9-5.4,2.6-8.1c0.5-1.9,0.6-5.2,2.3-6.5
					c2.6-1.9,0.1-6.2-2.5-4.3c-2,1.5-3.4,3.8-3.8,6.3c-0.9,3.8-2,7.6-3.3,11.3h4.8c-0.6-2.5-0.4-5.1,0.8-7.4c0.9-1.8,2.2-3.1,2.8-5
					c0.8-2.7-3.2-4.4-4.6-1.9c-1.5,2.7-4.6,9.9-1.2,12.4c1.2,0.9,2.9,0.8,4-0.2c1.8-1.6,1-5,3-6.3
					C388.3,444.6,385.8,440.3,383.1,442L383.1,442z"/>
				<path d="M411.8,447.3l4.3,8.8c1.4,2.9,5.7,0.4,4.3-2.5l-4.3-8.8C414.8,441.8,410.4,444.4,411.8,447.3z"/>
				<path d="M435.4,492.8c0.6,0.3,0.7,2.7,1,3.3c0.4,0.8,1.1,1.4,1.8,1.9c1.5,1,3.1,1.3,4.7,2.5s3.3,2.7,4.9,4
					c1,0.9,2.6,0.9,3.6-0.1c0.6-0.6,0.8-1.5,0.6-2.3c-0.4-2.7-1.5-5.1-3.3-7.1c-1.6-1.9-4.9,0.1-4.2,2.4l0.2,0.5
					c0.2,0.9,0.9,1.5,1.8,1.8c3.2,0.6,7.5-1.8,8-5.3c0.4-3.2-2.4-4.6-5-3.4c-0.8,0.5-1.2,1.3-1.2,2.2l0,0.5c0,1.1,0.8,2.1,1.8,2.4
					c4.3,0.7,9.9,0.9,12.2-3.8c1.9-3.9-0.8-7.4-4.9-7c-3.5,0.4-7.9,3.2-7,7.3c1.1,4.7,5.9,3.5,8.5,1.1c1-1,1-2.6,0-3.5
					c-0.3-0.3-0.7-0.5-1.1-0.6c-3.9-0.8-13.2-1.7-14.5,3.9c-0.9,3.9,3.5,6.3,6.8,5c2.7-1,4.1-3.9,5.6-6.2c2.2-3.3,4.4-2.8,7.8-3.4
					c2.8-0.6,5.4-1.7,7.9-3.2c2-1.1,1.4-0.8,3.5-0.1c1.1,0.5,2.2,0.7,3.3,0.7c2.3-0.1,3.7-3.6,1.3-4.7c-2.9-1.3-5.9-2.4-9-3.3
					L469,483c1.6,0.4,4.1,0.7,5.5,1.8c-1.6-1.2-3.6-0.7-5.5-0.7c-3.1-0.1-6.2,0-9.3,0.4c-4.5,0.9-8.5,3.2-10.5,7.4
					c-0.6,1.3-0.2,3.4,1.5,3.7c4.8,0.8,9.7,0.3,14.2-1.3c3-1.1,1.7-5.9-1.3-4.8c-3.7,1.4-7.7,1.8-11.6,1.3l1.5,3.7
					c4.7-9.8,17.3-1.7,24.2-6.9c6.4-4.8-3.9-8.5-7.4-9.3c-3.1-0.7-4.4,3.9-1.3,4.8c2.6,0.8,5.2,1.7,7.8,2.8l1.3-4.7
					c-2.9,0.1-4.3-2.8-7.4-1.4c-1.4,0.6-2.4,1.9-3.7,2.6c-2.3,1.1-4.7,1.7-7.2,1.9c-2.7,0.3-4.7,0.3-6.5,2.5
					c-1.3,1.6-2.5,3.3-3.5,5.2c-2,2.6-1.8,3.3,0.6,2.2c2-0.4,4-0.3,6,0.2l-1.1-4.2c1.9,0,2.1,0.4,0.5,1.2c-1.5,0.2-3,0.2-4.5-0.1
					l1.8,2.4l0-0.5l-1.2,2.2l-0.8,0.2l-1.8-1.7l-1.6,1l1.8,1.7l-0.2-0.5l-4.2,2.4c1.2,1.4,1.9,3.1,2.1,4.9l4.2-2.4
					c-1.6-1.3-3.2-2.7-4.9-4c-1.4-1.1-3.7-1.9-4.8-3c-1.7-1.7-1.2-4.3-3.8-5.5C435,487.1,432.4,491.4,435.4,492.8L435.4,492.8z"/>
				<path d="M460.1,489c-0.3,1.3,0.1,2.7,1,3.7c0.8,0.8,2,0.9,3,0.4c1.2-0.7,1.9-1.9,1.8-3.3c0-1.4-1.1-2.5-2.5-2.5
					c-1.4,0-2.5,1.1-2.5,2.5c0,0.2,0,0.2,0-0.1c0-0.2,0.1-0.4,0.2-0.5c0.1-0.1,0.8-0.6,0.4-0.4l3,0.4c0.2,0.3,0.3,0.4,0.2,0.2
					s-0.1-0.1,0.1,0.3v0.4c0-0.3,0-0.2-0.1,0.3c0.2-0.7,0.1-1.3-0.3-1.9c-0.7-1.2-2.3-1.6-3.4-0.9c-0.5,0.3-1,0.9-1.1,1.5L460.1,489
					z"/>
				<path d="M437.4,495.7c0.5,0,1,0.3,1.2,0.7l-0.3-1.9c0.5-0.6,0.4-0.8-0.1-0.3c-0.4,0.2-0.7,0.5-0.9,0.9c-0.3,0.5-0.5,1-0.6,1.6
					c0,1.3,0.8,2.4,2,2.9c3,1.4,6.3,2,9.6,1.9c3.2,0,3.2-5,0-5c-2.4,0-5.6-0.2-7.7-1.6l1.1,1.5l-0.1-0.4l-0.3,2
					c-0.4,0.6,0.3-0.1,0.6-0.4c0.3-0.2,0.5-0.5,0.7-0.8c0.5-1,0.5-2.1,0-3.1c-1-2-3.3-2.8-5.4-3
					C434.2,490.4,434.2,495.4,437.4,495.7L437.4,495.7z"/>
				<path d="M440.2,496.6c0.6,1.1,1,2.3,1.2,3.5l4.9-0.7l-0.1,0.8c0.7-1.2,0.3-2.7-0.9-3.4c-1.2-0.7-2.7-0.3-3.4,0.9
					c-0.5,0.9-0.6,2-0.4,3.1c0.6,2.7,5,2.2,4.9-0.7c-0.2-2.1-0.8-4.2-1.9-6c-0.7-1.2-2.2-1.6-3.4-0.9
					C440,493.9,439.6,495.5,440.2,496.6z"/>
				<path d="M246.4,205.6l5.2,1.2c1.3,0.3,2.7-0.5,3-1.8c0.3-1.1-0.2-2.2-1.1-2.7c-2.1-1.3-4.4-2.1-6.8-2.3
					c-1.9-0.2-3.1,2.3-2.2,3.8c1.1,2,3,3.3,5.2,3.8l-1.5-3.7c-7,11.8-12.1,24.6-17,37.4c-2.7,7-5.4,14.1-8.5,21
					c-0.7,1.6-8.7,18.6-9.7,18.1c-2.3-0.9,2.6-7.8,3.3-9.1c1.3-2.7,2.3-5.5,3.4-8.2c2.5-6.7,5.1-13.1,8.8-19.3
					c3.6-5.9,7.7-11.5,11.1-17.5c3.7-6.5,6.6-13.4,11.3-19.3l-3.9-3c-7.7,10.2-10.3,22.7-14.9,34.3c-5.5,13.9-14,27-21.1,40.1
					l4.6,1.9c2.3-8.3,5.9-16.1,10.8-23.2c2.2-2.9,4-6.1,5.4-9.4c1.5-3.9,1.4-8,2.3-12c0.7-3.1-4.1-4.5-4.8-1.3
					c-0.9,3.7-0.8,7.6-2,11.2c-1.5,4.4-4.6,8-7.1,11.9c-4.2,6.6-7.4,13.9-9.4,21.5c-0.7,2.7,3.2,4.5,4.6,1.9
					c6.9-12.7,14.9-25.3,20.6-38.7c5.1-12,7.5-25.1,15.5-35.7c1.7-2.3-2.2-5.3-3.9-3c-5,6.3-8.2,13.4-12.1,20.4
					c-4.3,7.5-9.6,14.4-13.6,22c-3.9,7.4-6.1,15.4-9.6,23c-2,4.3-8.6,10.7-3.3,14.8c6,4.7,8.9-0.9,11.7-5.8
					c4-7.2,7.5-14.6,10.6-22.3c6.8-16.6,12.4-33.6,21.5-49.1c0.7-1.2,0.3-2.7-0.9-3.4c-0.2-0.1-0.4-0.2-0.6-0.2l-2.2-1.4l-2.2,3.8
					c1.6,0.1,3.1,0.6,4.3,1.6l2-4.6l-5.2-1.2C244.6,200.1,243.3,204.9,246.4,205.6L246.4,205.6z"/>
				<path d="M205.9,195.3c-1.8,0.5-3.6,0.6-5.4,0.4v5l6.5-0.6l-1.8-4.3c-11.7,9.9-20.6,21.8-29.2,34.3h4.3
					c-3.1-4.5,7.1-12.9,9.8-15.9l11.6-13.1c2.1-2.4-1.4-6-3.5-3.5c-6,6.8-12.1,13.6-18.2,20.4c-3.7,4.2-7.9,9.2-4.1,14.7
					c0.7,1.2,2.3,1.6,3.5,0.8c0.3-0.2,0.6-0.5,0.8-0.8c8.4-12.2,17.1-23.7,28.4-33.3c1.6-1.4,0.4-4.5-1.8-4.3l-6.5,0.6
					c-1.4,0-2.5,1.1-2.5,2.5s1.1,2.5,2.5,2.5c2.3,0.2,4.5,0,6.7-0.6C210.3,199.2,208.9,194.4,205.9,195.3L205.9,195.3z"/>
				<path d="M175.1,225.1l-0.8,1.8c-0.3,0.6-0.4,1.3-0.3,1.9c0.2,0.6,0.6,1.2,1.1,1.5c1.1,0.6,2.9,0.4,3.4-0.9l0.8-1.8
					c0.3-0.6,0.4-1.3,0.3-1.9c-0.2-0.6-0.6-1.2-1.1-1.5C177.4,223.6,175.6,223.8,175.1,225.1z"/>
				<path d="M136.2,275.9c1.4,1.8,2.4,3.8,3.1,5.9c0.4,1.3,1.7,2.1,3.1,1.7c1.3-0.4,2.1-1.7,1.7-3.1c-0.9-3.6-2-7.3-4.8-9.9
					c-1-1-2.6-0.9-3.6,0.1c-0.6,0.6-0.8,1.5-0.6,2.3l1.8,8.3l4.8-1.3c-0.6-1.7-1.5-3.3-2.6-4.8c-1-1.4-2.1-2.8-1.5-4.6l-4.2,1.1
					c2.2,1.9,4.1,4.1,5.7,6.5c1.7,2.7,6,0.2,4.3-2.5c-1.7-2.9-3.9-5.4-6.4-7.6c-1-1-2.6-0.9-3.6,0.1c-0.3,0.3-0.5,0.6-0.6,1
					c-0.6,2-0.4,4.2,0.5,6c1,2.1,2.9,3.7,3.6,6c0.4,1.3,1.7,2.1,3.1,1.7c1.3-0.4,2.1-1.7,1.7-3.1l-1.8-8.3l-4.2,2.4
					c2.1,2,2.8,4.9,3.5,7.7l4.8-1.3c-1-3-2.4-5.7-4.4-8.1C137.8,269.9,134.3,273.4,136.2,275.9L136.2,275.9z"/>
				<path d="M410.3,180c1.3,2.4,3,4.4,5.1,6.1c2.4,2,5.8-1.2,3.5-3.5c-1.3-1.4-3.5-1.5-4.9-0.3c-0.4,0.3-0.6,0.7-0.8,1.2
					c-1.7,3.7,3.2,10.1,4.6,13.2c5.7,12,10.9,24.5,17.6,36c0.7,1.2,2.3,1.6,3.5,0.8c0.2-0.1,0.3-0.2,0.4-0.3
					c2.1-1.8,2.2-4.3,1.1-6.8c-2-4.1-4.6-8-6.5-12.2c-4.6-9.7-9.1-19.4-13.7-29.1c-1.4-2.9-5.7-0.4-4.3,2.5l10,21.4
					c0.8,1.7,10.5,20.1,9.9,20.6l3.9,0.5c-4.1-7-7.5-14.5-11-21.9l-5-10.6l-2.5-5.3l-1.7-3.5c-0.4-2.1-1.9-3-4.3-2.7l3.5-3.5
					c-1.8-1.4-3.2-3.2-4.4-5.1C412.9,174.7,408.6,177.2,410.3,180L410.3,180z"/>
			</g>
		</mask>
		<g class="st1">
			<polygon class="st2" points="305.6,29.8 168.5,205.2 146.4,444 252.5,505.9 429.4,505.9 533.7,448.4 513.4,205.2 366,26.9 			"/>
			<polygon class="st2" points="339.5,26.9 124.3,293.6 338,533.8 556.1,293.6 			"/>
			<polygon class="st2" points="339.5,26.9 203.9,293.6 338,533.8 467.7,290.7 			"/>
		</g>
	</g>
</g>
</svg>
