<?xml version="1.0" encoding="utf-8"?>
<!-- Generator: Adobe Illustrator 21.0.0, SVG Export Plug-In . SVG Version: 6.00 Build 0)  -->
<svg version="1.1" xmlns="http://www.w3.org/2000/svg" xmlns:xlink="http://www.w3.org/1999/xlink" x="0px" y="0px"
	 viewBox="0 0 158.5 80.3" style="enable-background:new 0 0 158.5 80.3;" xml:space="preserve">
<style type="text/css">
	.st0{fill:#FFFFFF;}
	.st1{fill:none;stroke:#FFFFFF;stroke-width:2;stroke-linecap:round;stroke-linejoin:round;stroke-miterlimit:10;}
</style>
<g id="Layer_2">
	<g>
		<path class="st0" d="M37.6,52.7c-0.6-0.1-1.3-0.1-1.9,0.2c-0.5,0.2-1,0.6-1.2,1.1c-0.2,0.3-0.3,0.7-0.3,1.1c0,0.6,0.2,1.2,0.5,1.6
			c0.2,0.2,0.3,0.4,0.5,0.6c0.3,0.3,0.6,0.4,1,0.5c0,0,0,0,0,0s0,0,0,0c-0.7-0.1-1.2-0.4-1.7-0.9c-0.2-0.2-0.4-0.5-0.6-0.8
			c-0.4-0.8-0.4-1.8,0-2.6c0.4-0.9,1.3-1.6,2.2-1.9c0.2-0.1,0.4-0.1,0.6-0.1c0.2,0,0.3,0,0.5-0.1c3-2.6,8.1-4.6,7.9-10.2
			c-0.2-5.5-3.3-8.6-5.1-9.9c2-0.4,3.4-1.7,3.4-1.7l4,2.5c0.2,0.1,0.5,0.1,0.6-0.2l1.1-2.1c0.2-0.3-0.1-0.7-0.4-0.6
			c-1.2,0.1-3.7-0.3-5.9-3.7c-2.4-3.7-5.8-5-8.2-5c-0.3,0-0.5,0.2-0.4,0.5c0.1,1-0.1,3.4-3.4,3.9c-0.1,0-0.2,0.1-0.3,0.1
			C29.8,25.6,27,29,28.9,34c0.5,0,1.1,0,1.6,0c1.5,0.1,3.1,0.4,4.5,1.1c0.1,0,0.2,0.1,0.2,0.1c0.9,0.4,1.7,1,2.3,1.8
			c0.2,0.2,0.4,0.4,0.6,0.7c0,0.1,0.1,0.1,0.1,0.1c0.1,0.1,0.1,0.1,0.1,0.1s0,0-0.1-0.1c0,0-0.1-0.1-0.1-0.1
			c-0.9-0.9-1.9-1.5-3.1-1.9c-1.5-0.5-3.1-0.6-4.7-0.4c-1,0.1-2,0.3-3,0.6c-1.8,0.6-3.2,1.5-4,2.2c-0.3,0.2-0.2,0.7,0.2,0.8
			c3.9,0.7,6.7,2.9,7.5,3.6c0.1,0.1,0.4,0.1,0.5,0c0.7-0.4,2.2-1.4,2.2-1.4c1.9,3.3-0.9,6.1-2,7.8c-1.3,2.1-2.5,4.7-1.7,7.2
			c0.8,2.3,3,4,5.5,3.6c0.8-0.1,1.6-0.4,2.4-0.8c1.3-0.7,2.1-1.8,2.1-3.3C40.1,54.3,39,53,37.6,52.7z M37.8,26.2c0-0.6,0.4-1,1-1.1
			c0.6,0,1,0.4,1.1,1c0,0.6-0.4,1-1,1.1C38.3,27.2,37.8,26.7,37.8,26.2z"/>
	</g>
</g>
<g id="Layer_1">
	<g id="background_2_">
		<path class="st0" d="M155.5,3v1.3h-0.1c-3.5,0-6.3,2.8-6.3,6.3v0.8c0,3.5,2.8,6.3,6.3,6.3h0.1v1.3h-0.1c-3.5,0-6.3,2.8-6.3,6.3V26
			c0,3.5,2.8,6.3,6.3,6.3h0.1v1.3h-0.1c-3.5,0-6.3,2.8-6.3,6.3v0.8c0,3.5,2.8,6.3,6.3,6.3h0.1v1.3h-0.1c-3.5,0-6.3,2.8-6.3,6.3v0.8
			c0,3.5,2.8,6.3,6.3,6.3h0.1v1.3h-0.1c-3.5,0-6.3,2.8-6.3,6.3v0.8c0,3.5,2.8,6.3,6.3,6.3h0.1v1.3H3V76h0.1c3.5,0,6.3-2.8,6.3-6.3
			V69c0-3.5-2.8-6.3-6.3-6.3H3v-1.3h0.1c3.5,0,6.3-2.8,6.3-6.3v-0.8c0-3.5-2.8-6.3-6.3-6.3H3v-1.3h0.1c3.5,0,6.3-2.8,6.3-6.3v-0.8
			c0-3.5-2.8-6.3-6.3-6.3H3v-1.3h0.1c3.5,0,6.3-2.8,6.3-6.3v-0.8c0-3.5-2.8-6.3-6.3-6.3H3v-1.3h0.1c3.5,0,6.3-2.8,6.3-6.3v-0.8
			c0-3.5-2.8-6.3-6.3-6.3H3V3H155.5 M158.5,0H0v7.3h3.1c1.8,0,3.3,1.5,3.3,3.3v0.8c0,1.8-1.5,3.3-3.3,3.3H0v7.3h3.1
			c1.8,0,3.3,1.5,3.3,3.3V26c0,1.8-1.5,3.3-3.3,3.3H0v7.3h3.1c1.8,0,3.3,1.5,3.3,3.3v0.8c0,1.8-1.5,3.3-3.3,3.3H0v7.3h3.1
			c1.8,0,3.3,1.5,3.3,3.3v0.8c0,1.8-1.5,3.3-3.3,3.3H0v7.3h3.1c1.8,0,3.3,1.5,3.3,3.3v0.8c0,1.8-1.5,3.3-3.3,3.3H0v7.3h158.5V73
			h-3.1c-1.8,0-3.3-1.5-3.3-3.3V69c0-1.8,1.5-3.3,3.3-3.3h3.1v-7.3h-3.1c-1.8,0-3.3-1.5-3.3-3.3v-0.8c0-1.8,1.5-3.3,3.3-3.3h3.1
			v-7.3h-3.1c-1.8,0-3.3-1.5-3.3-3.3v-0.8c0-1.8,1.5-3.3,3.3-3.3h3.1v-7.3h-3.1c-1.8,0-3.3-1.5-3.3-3.3v-0.8c0-1.8,1.5-3.3,3.3-3.3
			h3.1v-7.3h-3.1c-1.8,0-3.3-1.5-3.3-3.3v-0.8c0-1.8,1.5-3.3,3.3-3.3h3.1V0L158.5,0z"/>
	</g>
	<g id="lines_1_">
		<rect x="59.8" y="13.5" class="st1" width="80.8" height="53.4"/>
	</g>
	<rect x="17.9" y="13.5" class="st1" width="36.6" height="53.4"/>
</g>
</svg>
