<?xml version="1.0" encoding="utf-8"?>
<!-- Generator: Adobe Illustrator 21.0.0, SVG Export Plug-In . SVG Version: 6.00 Build 0)  -->
<svg version="1.1" id="Layer_1" xmlns="http://www.w3.org/2000/svg" xmlns:xlink="http://www.w3.org/1999/xlink" x="0px" y="0px"
	 viewBox="0 0 700 134" style="enable-background:new 0 0 700 134;" xml:space="preserve">
<style type="text/css">
	.st0{fill:none;}
</style>
<g>
	<path d="M-106-49l-0.1-0.1L-106-49z"/>
	<path d="M536-22l-0.1-0.1L536-22z"/>
	<path d="M493-20l0.1,0.1L493-20z"/>
	<path class="st0" d="M337,71.4c-0.2,3-0.3,5.4-0.4,7.8c0.2,0,0.5,0,0.7,0C337,76.8,338.5,74.4,337,71.4z"/>
	<path class="st0" d="M363.5,73.3c0.2,2.1,0.5,4.1,0.7,6.2C366,77.1,364,75.3,363.5,73.3z"/>
	<path class="st0" d="M338.7,64c0.1,0,0.2,0,0.2,0c0-1.6,0-3.2,0-4.8c-0.1,0-0.2,0-0.2,0C338.7,60.8,338.7,62.4,338.7,64z"/>
	<path class="st0" d="M71.1,127.1c-0.7-4.9-1.5-9.7-1.1-14.7c0.3-4.1-0.7-8.3-1.2-12.4c-0.1-1.1-0.3-2.3-0.5-3.4
		c-3.4,0.1-5-1-6.1-4.2c-0.5-1.4-1-2.8-1.2-4.2c-0.2-1.4,0-2.9,0-4.3c-2.1,1.7-4.1,3.4-6.7,5.5c-0.4,3.1-0.8,7-1.3,11
		c-0.5,3.8-1.2,7.5-1.5,11.2c-0.4,4.6-0.6,9.3-0.8,13.9c-0.1,2.7-0.3,5.4-0.4,8.5H72C72,131.7,71.5,129.4,71.1,127.1z"/>
	<path class="st0" d="M37.7,121.8c0.9-4.8,2.1-9.5,2.5-14.3c0.3-4.7-0.3-9.5-0.6-14.3c-1.4,7-3.7,13.9-3.7,21.2
		c0,6.1,0,12.2,0.1,18.3c0,0.4,0.1,0.8,0.2,1.3h1.5c-0.2-2.5-0.4-5.1-0.6-7.6C37,124.9,37.5,123.4,37.7,121.8z"/>
	<path class="st0" d="M191.2,110.2c-0.9-2.9-1.4-5.9-2.7-8.8c-1.1,2.8-2.4,5.6-3.1,8.5c-0.6,2.8-1,5.9-0.3,8.6
		c1.2,5.1,1.7,10.3,1.9,15.5h4c0.1-1.6,0.2-3.1,0.2-4.7C191.3,123,193.1,116.6,191.2,110.2z"/>
	<path class="st0" d="M602.5,134h0.3c0-0.4-0.1-0.8-0.1-1.2C602.6,133.2,602.6,133.6,602.5,134z"/>
	<path class="st0" d="M108.6,99c-0.3-1-1.2-2-2-2.5c-3-1.6-3.8-3.5-3.8-6.8c0-3.9-0.3-7.7-0.7-11.6c-0.2-2.6-0.7-5.1-1.6-7.6
		c-1.1,6-2.2,12-3.3,18c-0.1,0.5-0.1,1.1-0.4,1.4c-2.6,2.3-2.5,5.6-3,8.5c-2,11.1-1.8,22.4-2.5,33.6c0,0.7-0.1,1.3-0.2,2h19.4
		c-0.7-10-0.6-19.9-1.2-29.9C109.2,102.4,109,100.6,108.6,99z"/>
	<path class="st0" d="M616.6,121.7L616.6,121.7C616.6,121.8,616.6,121.8,616.6,121.7z"/>
	<path class="st0" d="M616.4,121.4L616.4,121.4C616.4,121.3,616.4,121.3,616.4,121.4z"/>
	<path class="st0" d="M351.8,111.2c-0.1-1.3-0.7-2.6-1-3.9c-0.2,0-0.5-0.1-0.7-0.1c-0.5,1.3-1.3,2.5-1.4,3.8
		c-0.6,6.2-1,12.3-1.3,18.5c-0.1,1.5,0.2,3,0.3,4.5h4.3c0.2-2.1,0.4-4.2,0.4-6.3C352.4,122.2,352.1,116.7,351.8,111.2z"/>
	<path class="st0" d="M484.9,124.1c-0.2-3.6-0.5-7.1-1-10.7c-0.7-4.8-1.6-9.6-2.4-14.3c-0.1-0.4-0.3-0.9-0.9-1.3c0,0.9,0,1.8,0,2.7
		c-0.2,4.4-0.5,8.7-0.5,13.1c0,4.3,0.4,8.5,0.7,12.8c0.2,2.5,0.4,5.1,0.4,7.6h4.1c-0.1-1.2-0.3-2.4-0.4-3.5
		C485,128.4,485.1,126.2,484.9,124.1z"/>
	<path class="st0" d="M366,84.8L366,84.8C366,84.7,366,84.7,366,84.8z"/>
	<path class="st0" d="M55.3,75.4c-0.2,0-0.3-0.1-0.5-0.1c0,0.3,0,0.6,0,0.9c0.1,0,0.2,0,0.2,0C55.2,76,55.2,75.7,55.3,75.4z"/>
	<path class="st0" d="M55,84.6c-0.1-0.3-0.5-0.6-1-1.2c0.2,1,0.3,1.6,0.4,2.2C54.9,85.3,55.1,84.9,55,84.6z"/>
	<path class="st0" d="M80.2,108.3c0,7.4,0,14.9,0,22.3C81.4,123.1,82.9,115.7,80.2,108.3z"/>
	<path class="st0" d="M61.5,75.2c-0.2,0-0.4,0-0.5-0.1c-0.1,1.1-0.3,2.2-0.4,3.2c0.2,0,0.4,0,0.7,0.1C61.3,77.3,61.4,76.2,61.5,75.2
		z"/>
	<path class="st0" d="M121.4,124c0.1-7.5-0.3-14.9-0.4-22.4c-0.1-2.8,0-5.6,0-8.4c-0.1,0-0.2,0-0.3,0c-0.2,1.9-0.6,3.8-0.7,5.7
		c-0.3,7.8-0.4,15.5-0.6,23.3c0,1.2,0,2.3-0.1,3.5c-0.1,2.8-0.3,5.5-0.4,8.3h1.8C121,130.7,121.4,127.3,121.4,124z"/>
	<path d="M36,132.7c-0.1-6.1-0.1-12.2-0.1-18.3c0-7.3,2.3-14.1,3.7-21.2c0.3,4.8,0.9,9.6,0.6,14.3c-0.3,4.8-1.6,9.5-2.5,14.3
		c-0.3,1.5-0.8,3.1-0.7,4.6c0.2,2.5,0.4,5.1,0.6,7.6h12.5c0.2-3.2,0.3-5.9,0.4-8.5c0.3-4.6,0.4-9.3,0.8-13.9c0.3-3.8,1-7.5,1.5-11.2
		c0.5-3.9,0.9-7.9,1.3-11c2.6-2.1,4.6-3.7,6.7-5.5c0,1.4-0.2,2.9,0,4.3s0.8,2.8,1.2,4.2c1.1,3.2,2.6,4.2,6.1,4.2
		c0.2,1.1,0.4,2.3,0.5,3.4c0.5,4.1,1.4,8.3,1.2,12.4c-0.3,5,0.4,9.8,1.1,14.7c0.3,2.3,0.9,4.6,0.9,6.9h19c0.1-0.7,0.2-1.3,0.2-2
		c0.7-11.2,0.5-22.5,2.5-33.6c0.5-3,0.4-6.3,3-8.5c0.3-0.3,0.3-0.9,0.4-1.4c1.1-6,2.2-12,3.3-18c0.8,2.5,1.3,5,1.6,7.6
		c0.4,3.9,0.7,7.7,0.7,11.6c0,3.3,0.9,5.1,3.8,6.8c0.9,0.5,1.8,1.5,2,2.5c0.5,1.7,0.6,3.4,0.7,5.2c0.6,9.9,0.5,19.9,1.2,29.9h8.4
		c0.1-2.8,0.3-5.5,0.4-8.3c0.1-1.2,0.1-2.3,0.1-3.5c0.2-7.8,0.3-15.5,0.6-23.3c0.1-1.9,0.5-3.8,0.7-5.7c0.1,0,0.2,0,0.3,0
		c0,2.8,0,5.6,0,8.4c0.1,7.5,0.5,14.9,0.4,22.4c0,3.3-0.4,6.7-0.8,10h9.6c0.1-0.4,0.1-0.8,0.2-1.2c0.4-6.6,0.3-13.2,0.7-19.7
		c0.3-4.6,1.2-9.2,1.9-13.8c0.2-1.5,0.9-2.7,2.5-3.2c1.5-0.5,2.2-1.8,2.4-3.3c0.5-4.1,1.1-8.2,1.6-12.3c0.2-1.5,0.5-3,0.7-4.5l0,0
		c0.1-0.7,0.1-1.5,0.2-2.4c0.5,0.3,0.7,0.5,0.9,0.6c0-1.5,0-3.1,0-4.6l0,0c-0.2-0.3-0.4-0.7-0.5-1c-1.7-4.6-1.4-9.4-1.7-14.1
		c-0.5-6.2-1.6-11.8-8.6-14c-2.1-0.7-3.5-2.3-4.2-4.5c2.1-4.3,1.9-6.4,1.6-11.3c-0.1-2.6-1.4-4.5-3.4-5.8c-2.4-1.4-5.1-1.7-7.8-0.4
		c-2.6,1.3-3.3,3.3-3,6c0.1,0.6,0.1,1.2-0.1,1.7c-0.6,2.1-0.1,3.8,1.2,5.4c1,1.3,0.9,2.9,0,4.1c-1,1.3-2.2,2.4-3.6,3.2
		c-2,1.2-4.3,1.9-6.3,2.9c-1.6,0.8-2.9,1.9-2.9,4c-0.1,1.8-0.4,3.7-0.5,5.5c-0.1,2.6,0,5.2,0,6.9c-0.7-3.9-1.5-8.5-2.2-13.2
		c-0.3-1.9-1.4-3-3.3-3.7c-1.8-0.7-3.6-1.5-5.2-2.5c-3.6-2.1-3.8-3.5-1.6-7c1.6-2.4,0.2-9.4-2.3-11c-0.5-0.3-1.1-0.5-1.6-0.6
		c-2.5-0.7-5-0.1-6.4,1.8c-1.7,2.3-3.7,4.7-2.8,8.1c0.7,2.6,1,5.2,1.6,8.2c-3.1,1.3-5.9,2.5-8.9,3.5c-2.2,0.7-3.3,2.1-3.6,4.4
		C64,52.7,63,59.2,62,65.6c-0.3,1.8-0.6,3.6-0.9,5.4c-0.6-1.8-0.6-3.6-0.6-5.3c0.3-8.8-0.3-17.4-1.9-26.1c-0.8-4-2.1-7.2-5.8-9.1
		l0,0c-2.6-1.4-5.2-2.9-7.6-4.2c0.8-1.5,1.9-2.6,2.1-3.9c0.8-4,1.3-8.1,1.9-12.2c-0.6-0.5-1.5-1-2.1-1.7c-1.5-1.8-3.4-2.6-5.6-2.5
		c-2.1,0.1-4.2,0.5-6.2,0.7c-3.2,4.5-3.1,9-0.2,13.6c0.1,0.1,0.1,0.2,0.1,0.3c1.2,2.7,0.5,4.2-2.3,5.5c-2.6,1.2-5.2,2.6-7.7,4.1
		c-2.1,1.2-3.5,3.1-4,5.5c-0.6,2.8-1,5.5-1.5,8.3c-0.9,4.9-1.6,9.8-1.4,14.7c0.2,3,0.7,5.7,2.4,8.3c0.8,1.2,1.5,2.8,1.5,4.3
		c0,2.3,0.6,3.9,2,4.5c0.7,4.6,1.4,8.5,1.9,12.6c0.2,1.5,0.3,3.1,0.2,4.6c-0.3,4.4-0.6,8.9-1,13.3c-0.1,1.7-0.4,3.5-0.6,5.2
		c-0.4,2.9-0.8,5.7-1.1,8.6c-0.2,2.2-0.5,4.5-0.4,6.7c0.1,2.5,0.2,5.2,1.1,7.4c0,0,0,0.1,0.1,0.1h11.2C36.1,133.6,36,133.2,36,132.7
		z M80.2,108.3c2.7,7.4,1.2,14.9,0,22.3C80.2,123.1,80.2,115.7,80.2,108.3z M61,75.1c0.2,0,0.4,0,0.5,0.1c-0.1,1.1-0.2,2.2-0.3,3.2
		c-0.2,0-0.4,0-0.7-0.1C60.7,77.3,60.8,76.2,61,75.1z M54.8,75.3c0.2,0,0.3,0.1,0.5,0.1c-0.1,0.3-0.2,0.6-0.2,0.9
		c-0.1,0-0.2,0-0.2,0C54.8,75.9,54.8,75.6,54.8,75.3z M55,84.6c0.1,0.3,0,0.6-0.6,1c-0.1-0.6-0.2-1.2-0.4-2.2
		C54.5,84,54.8,84.3,55,84.6z"/>
	<path d="M141.4,74.1L141.4,74.1L141.4,74.1L141.4,74.1z"/>
	<path d="M35.9,6.5L35.9,6.5L35.9,6.5z"/>
	<path d="M602.7,132.8c0,0.4,0.1,0.8,0.1,1.2h15c4.2-3.8,4.6-8.9,4.6-14.1c-0.1-8.9-0.2-17.9-0.6-26.8c-0.1-3.5-0.9-6.9-1.4-10.3
		c-0.4-2.7-2-4.3-4.5-5.2c-0.8-0.3-1.6-0.8-2.4-1c-2.7-0.6-4-2.4-4.9-4.9c0.3-0.4,0.5-0.8,0.9-1.1c2.4-2.1,4.7-4.2,3.8-7.8
		c-0.1-0.3,0.1-0.8,0.3-1.1c1.1-2.3,0.4-4.1-1.2-5.9c-0.9-1-1.6-2.2-2.5-3.2c-0.6-0.6-1.2-1.4-2-1.6c-3.2-0.9-6.2-1.5-9.6,0
		c-2.5,1.1-4,2.9-5.8,4.6c-1.7,1.6-2,3.3-1.6,5.2c1,4.5,2,9.1,6.7,11.6c-1.4,2.3-3.4,3.4-5.6,4.1l0,0c-0.9,0.5-1.8,1.2-2.7,1.6
		c-2.4,1-3.6,2.7-3.8,5.3c-0.5,7.3-1.2,14.5-1.6,21.7c-0.3,5.2-0.4,10.5-0.6,15.7c0,0.5,0,1,0.2,1.4c1,2.9,2,5.9,3,8.8
		c0.2,0.4,0.4,1,0.7,1.2c0.7,0.4,1.1,1,1.5,1.5h13.9C602.6,133.6,602.6,133.2,602.7,132.8z M616.4,121.4L616.4,121.4L616.4,121.4
		c0,0,0.1,0.1,0.1,0.2s0.1,0.1,0.1,0.2l0,0l0,0c0,0.1,0,0,0,0c0,0.1,0,0,0,0s-0.1-0.1-0.1-0.2C616.4,121.5,616.4,121.4,616.4,121.4
		C616.4,121.3,616.4,121.3,616.4,121.4C616.4,121.3,616.4,121.3,616.4,121.4z"/>
	<path d="M616.6,121.7L616.6,121.7C616.6,121.8,616.6,121.8,616.6,121.7z"/>
	<path d="M616.6,121.7c0,0,0-0.1-0.1-0.2c0-0.1-0.1-0.2-0.1-0.2s0,0.1,0.1,0.2C616.5,121.6,616.6,121.7,616.6,121.7z"/>
	<path d="M616.4,121.4L616.4,121.4C616.4,121.3,616.4,121.3,616.4,121.4z"/>
	<path d="M168.9,67.8L168.9,67.8C168.9,67.7,168.9,67.7,168.9,67.8L168.9,67.8z"/>
	<path d="M185.1,118.5c-0.6-2.7-0.2-5.8,0.3-8.6c0.6-2.9,2-5.7,3.1-8.5c1.2,2.9,1.8,5.9,2.7,8.8c1.9,6.4,0.1,12.7,0.1,19.1
		c0,1.6-0.1,3.1-0.2,4.7h11.2c0.1-2.6,0.1-5.3,0.1-7.9c0-4.3,0-8.7,0-13c0-1.6,0.1-3.3,0.3-4.9c0.4-3.4,1-6.7,1.3-10.1
		c0.2-1.8,0-3.6,1.5-5.1c0.5-0.5,0.7-1.4,0.8-2.1c0.4-5.1,1-10.2,1.2-15.4c0.2-6,0.2-12,0-17.9c-0.1-3.9-0.8-7.7-1-11.6
		c-0.3-4.4-2.5-7.4-6.6-9.1l-0.1-0.1c-1.1-0.6-2.2-1.2-3.2-1.9c-1.9-1.2-2.3-2.3-1.5-4.4c1.1-2.8,1-5.7,0.4-8.6
		c-0.6-2.9-2.2-4.5-5.1-5.1c-2.5-0.5-5.4,0.5-6.4,2.8c-1.3,2.9-2.5,6.2-0.4,9.3c0.9,1.3,0.6,2.4-0.4,3.3c-0.6,0.6-1.3,1.1-2,1.6
		c-2.8,2.2-6.4,3.4-8.5,6.4l0,0c-1.8,2.2-2.6,4.6-2.5,7.5c0.1,2.1-0.2,4.2-0.2,6.3c0,3.7-0.1,7.5,0,11.2c0,1,0.4,1.9-0.9,2.4
		c1.1,1.3,1.8,2.7,1.7,4.5c-0.3,4.4,1.2,8.4,2.7,12.4c0.4,1.1,0.7,2.2,0.8,3.3c0.2,9.1,0.4,18.2,0.5,27.4c0,3.4-0.3,6.8-0.4,10.2
		c-0.1,2.9,0.1,5.7,0.6,8.5h12C186.8,128.8,186.3,123.6,185.1,118.5z"/>
	<path d="M480.9,126.4c-0.3-4.2-0.7-8.5-0.7-12.8c0-4.4,0.3-8.7,0.5-13.1c0-0.9,0-1.8,0-2.7c0.6,0.4,0.8,0.8,0.9,1.3
		c0.8,4.8,1.7,9.5,2.4,14.3c0.5,3.5,0.7,7.1,1,10.7c0.1,2.1,0,4.2,0.1,6.3c0.1,1.2,0.3,2.4,0.4,3.5h8.8c0.1-6.5,0.1-13,0-19.6
		c0-3-0.8-6-0.7-8.9c0.2-7.1,0.9-14.1,2.8-21c2.4-8.9,3.7-17.8,3.1-27c0-0.6,0-1.2,0-1.7c0.3-4.4-0.5-8.7-1.7-12.9
		c-0.5-1.9-1.4-3-3.3-3.6c-2.3-0.7-4.6-1.6-6.8-2.5c-2.5-1-3.4-3.1-2.9-5.8l0,0c1.9-4.1,0-7.6-1.7-11c-1-2.1-4.4-3.1-7.2-2.5
		c-2.1,0.4-3.8,2.4-3.9,4.8c-0.1,3-0.4,6,0.9,8.9c0.7,1.6,1.3,3.4,2,5.5c-1.4,0.8-2.9,1.5-4.3,2.3c-2,1.1-4.2,2-6.1,3.3
		c-0.8,0.6-1.5,1.8-1.7,2.8c-0.4,2-0.6,4-0.7,6.1c-0.5,8.6-0.9,17.2-1.3,25.8c-0.1,2.8,0.2,5.6,0,8.4c-0.1,2.3,0.3,4.4,1.8,6.2l0,0
		c0.3,0.4,0.6,0.8,1,1.1c2.2,1.6,3.2,3.7,3.4,6.4c0.2,2.2,1,4.3,1.5,6.5c0.6,2.6,1.4,5.1,1.6,7.7c0.7,6.9,1.2,13.8,1.7,20.7h9.7
		C481.4,131.5,481.1,128.9,480.9,126.4z"/>
	<path d="M406.5,133.2c-0.6-8.5-0.9-17,1.5-25.4c0.5-2,1.1-3.9,1.6-5.9c0.2,0,0.4,0,0.5,0.1c0.3,0.9,0.6,1.8,1,2.7
		c0.2,0.1,0.5,0.3,0.7,0.4c0.4-0.6,0.8-1.3,1.2-1.9l0,0c1.3-3.4,1.8-6.9,0.7-10.6c-0.5-1.8-0.8-3.5,0.2-5.3c0.5-0.8,0.2-2.1,0.2-3.1
		c-0.1-2.8-0.3-5.6-0.5-8.4c-0.4-6.6-0.5-13.2-1.4-19.7c-0.3-2.2-2.4-4.3-4-6.1c-1.2-1.4-3-2.2-4.2-3c-0.3-3.8-0.7-7-0.8-10.2
		c-0.4-8.1-7.1-10.9-13.9-7.8c-2.3,1-3.5,3-3.7,5.5c-0.4,4.4-1.3,8.8,0.2,13.3c-0.7,0.5-1.3,1-2,1.3c-2.8,1.1-4.2,3.4-5,6.1
		c-0.4,1.6-0.7,3.2-0.8,4.9c-0.2,3.6-0.3,7.2-0.4,10.8c0,1,0.3,2.1,0.4,3.1l0,0c0,0.8,0,1.6,0,2.4l0,0c0.8,1.5,0.7,2.9-0.3,3.8
		c-0.9,3.2,0.4,5.7,1.9,8.2c0.2,0.3,0.1,0.8,0,1.1c-0.2,1.6-0.3,3.3-0.8,4.9c-0.7,2.4-0.4,4.3,1.8,5.9c0.7,0.5,1.7,1.4,1.8,2.2
		c0.6,4.4,1.8,8.7,0.8,13.2c-1.3,6.1-1.6,12.2-0.3,18.3h23.6C406.5,133.7,406.5,133.4,406.5,133.2z"/>
	<path d="M347.3,129.5c0.3-6.2,0.8-12.4,1.3-18.5c0.1-1.3,0.9-2.5,1.4-3.8c0.2,0,0.5,0.1,0.7,0.1c0.4,1.3,1,2.6,1,3.9
		c0.3,5.5,0.6,11,0.6,16.6c0,2.1-0.2,4.2-0.4,6.3h7.6c-0.4-0.7-0.4-1.8-0.4-2.6c0-1.1,0.4-2.3,0.7-3.4c1.6-6.4,2.1-12.9,0.8-19.3
		c-1.5-7.1,1.3-13.5,2.6-20.1c5.1,0.1,6.2-1,6.3-5.6c0.1-5.4,0.3-10.8,0.4-16.2c0-1.7-0.2-3.5-0.5-5.2c-0.3-2.2-0.8-4.4-1.2-6.6
		c-0.8-5.2-0.7-10.7-3.6-15.4c-1.1-0.7-2.2-1.7-3.4-2.2c-2.7-1-4.5-2.9-6.1-5c0.1-0.3,0.1-0.5,0.1-0.7c0.1-0.3,0.2-0.5,0.4-0.8
		c2.6-3.3,2.6-6.8,0.7-10.3c-1.5-2.9-4-4.7-7.2-4.7c-2.7,0-5,1.7-6.5,4.2c-2.4,4-2,7.7,0.9,11.3l0,0c0.2,0.3,0.5,0.8,0.5,0.9
		c-2.1,2.1-3.7,4.6-6.8,5.5c-3.3,1-4.9,3.5-4.9,7.1c0,2-0.5,4-0.8,6c-1.3,6.9-2.7,13.8-0.3,20.8c0,0.1,0,0.2,0,0.3
		c0.4,3.9,0.9,7.7,1.1,11.6c0.1,2.5,1.3,3.9,3.5,4.8c0.7,0.3,1.4,0.5,2.2,0.8c0.5,1.8,1.1,3.6,1.4,5.4c1.1,6,0.8,11.9-0.1,17.9
		c-0.4,2.6-0.2,5.4-0.1,8.1c0.1,4.5,0.8,9,0.5,13.5h7.8C347.5,132.5,347.2,131,347.3,129.5z M365.9,85c0-0.1,0.1-0.1,0.1-0.2l0,0
		l0,0c0-0.1,0,0,0,0c0-0.1,0,0,0,0S366,84.9,365.9,85l-0.1,0.1L365.9,85z M364.2,79.4c-0.2-2.1-0.5-4.1-0.7-6.2
		C364,75.3,366,77.1,364.2,79.4z M337.3,79.2c-0.2,0-0.5,0-0.7,0c0.1-2.4,0.3-4.9,0.4-7.8C338.5,74.4,337,76.8,337.3,79.2z
		 M338.9,64c-0.1,0-0.2,0-0.2,0c0-1.6,0-3.2,0-4.8c0.1,0,0.2,0,0.2,0C338.9,60.8,338.9,62.4,338.9,64z"/>
	<path d="M366,84.8c0,0-0.1,0.1-0.1,0.2l-0.1,0.1l0.1-0.1C366,84.9,366,84.8,366,84.8z"/>
	<polygon points="364.7,39.5 364.8,39.5 364.8,39.5 	"/>
	<path d="M366,84.8L366,84.8C366,84.7,366,84.7,366,84.8z"/>
	<path d="M447,125.5c-0.9-6.5,1.1-12.7,2.6-18.9c0.2-0.8,0.9-1.5,1.2-2.3c0.5-1.2,1.1-2.4,1.3-3.7c0.3-2.2,0.1-4.5,0.4-6.7
		c1.1-7.8,2.1-15.6,1.9-23.5c-0.1-5.5-1.9-10.4-4.7-15.1c-3.1-1.1-3.6-3.7-4-6.5c-0.5-3.8-1-7.7-1.8-11.5c-0.5-2.6-2.4-3.8-5.4-4
		c-2.7-0.2-4.7,0.7-5.6,3.1c-0.9,2.3-1.4,4.8-1.8,7.3c-1.5,8.3,0.3,7.1-7.4,12.8c-1,0.7-1.9,2-2.2,3.2c-0.7,3-1,6-1.5,9l0,0
		c0.1,0.8,0.5,1.7,0.4,2.5c-0.3,4.7-0.7,9.5-0.9,14.2c-0.1,1.4,0,2.9,0.3,4.3c0.7,4.2,1.3,8.4,2.2,12.6c0.3,1.3,0.9,2.5,1.5,3.7
		c0.6,1.4,1.7,2.6,2.1,4c1.9,7.4,1.8,15,2.7,22.5c0,0.4,0.1,0.9,0.2,1.3H447C447.3,131.2,447.4,128.4,447,125.5z M430.3,114.6
		L430.3,114.6l0.1,0.1L430.3,114.6z"/>
	<path d="M449.7,55.4L449.7,55.4L449.7,55.4z"/>
	<path d="M579.9,130.4c-0.8-5.1-2.5-10.9,1.7-15.7c0.3-0.3,0.2-1,0.3-1.5c0.5-3.2,1.2-6.4,1.3-9.6c0.1-4.8,0-9.7-0.6-14.5
		c-0.4-3.2-2.7-5.3-5.9-6.1c-1.2-0.3-2.5-0.5-3.6-1.1c-1.4-0.6-2.2-1.7-1.1-3.3l0,0c1.1-2.5,2.5-4.9,3.4-7.5
		c1.7-4.5-0.9-11.1-4.9-13.4c-2.1-1.2-4.4-1.4-6.5-0.4c-3.9,1.8-6.3,4.8-7,9.1c-0.4,2.5-0.7,5-0.8,7.4c-0.2,4.8-2.3,8.6-6.7,10.4
		c-4.6,1.9-5.3,5.5-5.4,9.6c-0.1,3.1-0.1,6.2-0.2,9.4c-0.2,5.2-0.5,10.5-0.6,15.7c0,1.4,0.4,3.1,1.2,4.2c1.7,2.2,2,4.5,1.9,7
		c0,1.2,0,2.5,0,3.7h33.8C580.2,132.8,580.1,131.6,579.9,130.4z"/>
	<polygon points="494.1,99.6 494.1,99.5 494,99.7 	"/>
	<path d="M430.3,114.6l0.1,0.1L430.3,114.6z"/>
	<path d="M71,140.6L71,140.6C70.9,140.5,70.9,140.5,71,140.6C70.9,140.5,70.9,140.5,71,140.6L71,140.6z"/>
</g>
</svg>
